<mxfile host="app.diagrams.net" modified="2024-07-05T12:01:33.818Z" agent="Mozilla/5.0 (X11; Ubuntu; Linux x86_64; rv:126.0) Gecko/20100101 Firefox/126.0" etag="1u0Rl9ng2XJh2Qyztpfy" version="24.6.4" type="device">
  <diagram name="Page-1" id="ANuRpPRaAKwXhINZnTVl">
    <mxGraphModel dx="1360" dy="765" grid="1" gridSize="10" guides="1" tooltips="1" connect="1" arrows="1" fold="1" page="1" pageScale="1" pageWidth="850" pageHeight="1100" math="0" shadow="0">
      <root>
        <mxCell id="0" />
        <mxCell id="1" parent="0" />
        <mxCell id="Vb9-h6wmJICRNCC08gW7-1" value="Start" style="rounded=1;whiteSpace=wrap;html=1;" vertex="1" parent="1">
          <mxGeometry x="370" y="60" width="120" height="60" as="geometry" />
        </mxCell>
        <mxCell id="Vb9-h6wmJICRNCC08gW7-2" value="End" style="rounded=1;whiteSpace=wrap;html=1;" vertex="1" parent="1">
          <mxGeometry x="400" y="1100" width="120" height="60" as="geometry" />
        </mxCell>
        <mxCell id="Vb9-h6wmJICRNCC08gW7-5" value="" style="edgeStyle=orthogonalEdgeStyle;rounded=0;orthogonalLoop=1;jettySize=auto;html=1;exitX=0.5;exitY=1;exitDx=0;exitDy=0;" edge="1" parent="1" source="Vb9-h6wmJICRNCC08gW7-1" target="Vb9-h6wmJICRNCC08gW7-4">
          <mxGeometry relative="1" as="geometry">
            <mxPoint x="430" y="120" as="sourcePoint" />
            <mxPoint x="430" y="370" as="targetPoint" />
          </mxGeometry>
        </mxCell>
        <mxCell id="Vb9-h6wmJICRNCC08gW7-4" value="num1: int&lt;br&gt;input(&quot;input first number:&quot;)" style="shape=card;whiteSpace=wrap;html=1;" vertex="1" parent="1">
          <mxGeometry x="360" y="140" width="140" height="100" as="geometry" />
        </mxCell>
        <mxCell id="Vb9-h6wmJICRNCC08gW7-9" style="edgeStyle=orthogonalEdgeStyle;rounded=0;orthogonalLoop=1;jettySize=auto;html=1;exitX=0.5;exitY=1;exitDx=0;exitDy=0;exitPerimeter=0;entryX=0.5;entryY=0;entryDx=0;entryDy=0;" edge="1" parent="1" source="Vb9-h6wmJICRNCC08gW7-6" target="Vb9-h6wmJICRNCC08gW7-8">
          <mxGeometry relative="1" as="geometry" />
        </mxCell>
        <mxCell id="Vb9-h6wmJICRNCC08gW7-6" value="num2: int&lt;br&gt;input(&quot;input second number:&quot;)" style="shape=card;whiteSpace=wrap;html=1;" vertex="1" parent="1">
          <mxGeometry x="360" y="270" width="140" height="100" as="geometry" />
        </mxCell>
        <mxCell id="Vb9-h6wmJICRNCC08gW7-7" style="edgeStyle=orthogonalEdgeStyle;rounded=0;orthogonalLoop=1;jettySize=auto;html=1;exitX=0.5;exitY=1;exitDx=0;exitDy=0;exitPerimeter=0;entryX=0.5;entryY=0;entryDx=0;entryDy=0;entryPerimeter=0;" edge="1" parent="1" source="Vb9-h6wmJICRNCC08gW7-4" target="Vb9-h6wmJICRNCC08gW7-6">
          <mxGeometry relative="1" as="geometry" />
        </mxCell>
        <mxCell id="Vb9-h6wmJICRNCC08gW7-11" style="edgeStyle=orthogonalEdgeStyle;rounded=0;orthogonalLoop=1;jettySize=auto;html=1;exitX=0;exitY=0.5;exitDx=0;exitDy=0;entryX=0.5;entryY=0;entryDx=0;entryDy=0;" edge="1" parent="1" source="Vb9-h6wmJICRNCC08gW7-8" target="Vb9-h6wmJICRNCC08gW7-10">
          <mxGeometry relative="1" as="geometry" />
        </mxCell>
        <mxCell id="Vb9-h6wmJICRNCC08gW7-12" value="True" style="edgeLabel;html=1;align=center;verticalAlign=middle;resizable=0;points=[];" vertex="1" connectable="0" parent="Vb9-h6wmJICRNCC08gW7-11">
          <mxGeometry x="-0.5657" y="-2" relative="1" as="geometry">
            <mxPoint as="offset" />
          </mxGeometry>
        </mxCell>
        <mxCell id="Vb9-h6wmJICRNCC08gW7-15" style="edgeStyle=orthogonalEdgeStyle;rounded=0;orthogonalLoop=1;jettySize=auto;html=1;exitX=1;exitY=0.5;exitDx=0;exitDy=0;entryX=0.5;entryY=0;entryDx=0;entryDy=0;" edge="1" parent="1" source="Vb9-h6wmJICRNCC08gW7-8" target="Vb9-h6wmJICRNCC08gW7-14">
          <mxGeometry relative="1" as="geometry" />
        </mxCell>
        <mxCell id="Vb9-h6wmJICRNCC08gW7-16" value="False" style="edgeLabel;html=1;align=center;verticalAlign=middle;resizable=0;points=[];" vertex="1" connectable="0" parent="Vb9-h6wmJICRNCC08gW7-15">
          <mxGeometry x="-0.3571" y="-5" relative="1" as="geometry">
            <mxPoint as="offset" />
          </mxGeometry>
        </mxCell>
        <mxCell id="Vb9-h6wmJICRNCC08gW7-8" value="num1 &amp;gt; num2" style="rhombus;whiteSpace=wrap;html=1;" vertex="1" parent="1">
          <mxGeometry x="370" y="410" width="120" height="130" as="geometry" />
        </mxCell>
        <mxCell id="Vb9-h6wmJICRNCC08gW7-29" style="edgeStyle=orthogonalEdgeStyle;rounded=0;orthogonalLoop=1;jettySize=auto;html=1;exitX=1;exitY=0.5;exitDx=0;exitDy=0;entryX=0;entryY=0.5;entryDx=0;entryDy=0;" edge="1" parent="1" source="Vb9-h6wmJICRNCC08gW7-10" target="Vb9-h6wmJICRNCC08gW7-2">
          <mxGeometry relative="1" as="geometry">
            <mxPoint x="320" y="1070" as="targetPoint" />
          </mxGeometry>
        </mxCell>
        <mxCell id="Vb9-h6wmJICRNCC08gW7-10" value="print(num1, &quot;is larger then&quot;, num2)" style="shape=document;whiteSpace=wrap;html=1;boundedLbl=1;" vertex="1" parent="1">
          <mxGeometry x="150" y="750" width="110" height="80" as="geometry" />
        </mxCell>
        <mxCell id="Vb9-h6wmJICRNCC08gW7-18" style="edgeStyle=orthogonalEdgeStyle;rounded=0;orthogonalLoop=1;jettySize=auto;html=1;exitX=0;exitY=0.5;exitDx=0;exitDy=0;entryX=0.5;entryY=0;entryDx=0;entryDy=0;" edge="1" parent="1" source="Vb9-h6wmJICRNCC08gW7-14" target="Vb9-h6wmJICRNCC08gW7-17">
          <mxGeometry relative="1" as="geometry" />
        </mxCell>
        <mxCell id="Vb9-h6wmJICRNCC08gW7-19" value="True" style="edgeLabel;html=1;align=center;verticalAlign=middle;resizable=0;points=[];" vertex="1" connectable="0" parent="Vb9-h6wmJICRNCC08gW7-18">
          <mxGeometry x="-0.5022" y="-2" relative="1" as="geometry">
            <mxPoint as="offset" />
          </mxGeometry>
        </mxCell>
        <mxCell id="Vb9-h6wmJICRNCC08gW7-22" style="edgeStyle=orthogonalEdgeStyle;rounded=0;orthogonalLoop=1;jettySize=auto;html=1;exitX=1;exitY=0.5;exitDx=0;exitDy=0;" edge="1" parent="1" source="Vb9-h6wmJICRNCC08gW7-14" target="Vb9-h6wmJICRNCC08gW7-21">
          <mxGeometry relative="1" as="geometry" />
        </mxCell>
        <mxCell id="Vb9-h6wmJICRNCC08gW7-23" value="False" style="edgeLabel;html=1;align=center;verticalAlign=middle;resizable=0;points=[];" vertex="1" connectable="0" parent="Vb9-h6wmJICRNCC08gW7-22">
          <mxGeometry x="-0.6075" y="-2" relative="1" as="geometry">
            <mxPoint as="offset" />
          </mxGeometry>
        </mxCell>
        <mxCell id="Vb9-h6wmJICRNCC08gW7-14" value="num2&amp;gt;num1" style="rhombus;whiteSpace=wrap;html=1;" vertex="1" parent="1">
          <mxGeometry x="620" y="570" width="110" height="110" as="geometry" />
        </mxCell>
        <mxCell id="Vb9-h6wmJICRNCC08gW7-20" style="edgeStyle=orthogonalEdgeStyle;rounded=0;orthogonalLoop=1;jettySize=auto;html=1;" edge="1" parent="1" source="Vb9-h6wmJICRNCC08gW7-17" target="Vb9-h6wmJICRNCC08gW7-2">
          <mxGeometry relative="1" as="geometry" />
        </mxCell>
        <mxCell id="Vb9-h6wmJICRNCC08gW7-17" value="print(num2, &quot;is larger then&quot;, num1)" style="shape=document;whiteSpace=wrap;html=1;boundedLbl=1;" vertex="1" parent="1">
          <mxGeometry x="400" y="750" width="120" height="80" as="geometry" />
        </mxCell>
        <mxCell id="Vb9-h6wmJICRNCC08gW7-28" style="edgeStyle=orthogonalEdgeStyle;rounded=0;orthogonalLoop=1;jettySize=auto;html=1;exitX=0;exitY=0.5;exitDx=0;exitDy=0;entryX=1;entryY=0.5;entryDx=0;entryDy=0;" edge="1" parent="1" source="Vb9-h6wmJICRNCC08gW7-21" target="Vb9-h6wmJICRNCC08gW7-2">
          <mxGeometry relative="1" as="geometry">
            <mxPoint x="600" y="1040" as="targetPoint" />
          </mxGeometry>
        </mxCell>
        <mxCell id="Vb9-h6wmJICRNCC08gW7-21" value="print{&quot;the numbers are equal&quot;)" style="shape=document;whiteSpace=wrap;html=1;boundedLbl=1;" vertex="1" parent="1">
          <mxGeometry x="800" y="760" width="120" height="80" as="geometry" />
        </mxCell>
      </root>
    </mxGraphModel>
  </diagram>
</mxfile>
